<svg width="225" height="87" viewBox="0 0 225 87" fill="none" xmlns="http://www.w3.org/2000/svg">
<g clip-path="url(#clip0_393_3674)">
<g clip-path="url(#clip1_393_3674)">
<g clip-path="url(#clip2_393_3674)">
<g clip-path="url(#clip3_393_3674)">
<path d="M0.437988 86.7004V40.9902H224.562V86.7004H0.437988Z" fill="#F4AB4F"/>
<path d="M2.50439 84.6339V43.0566H222.495V84.6339H2.50439Z" fill="#00916E"/>
<path d="M6.63721 80.5015V47.1895H218.363V80.5015H6.63721Z" fill="#F4AB4F"/>
<g clip-path="url(#clip4_393_3674)">
<g clip-path="url(#clip5_393_3674)">
<g clip-path="url(#clip6_393_3674)">
<path d="M30.9409 54.1633H43.954C43.954 55.4542 43.954 56.7452 43.954 58.0362C43.954 59.3272 43.954 60.6182 43.954 61.9092C43.954 63.2001 43.954 64.4911 43.954 65.7821C43.954 67.0731 43.954 68.3641 43.954 69.6551C43.954 70.946 43.954 72.237 43.954 73.528H34.0134C34.0134 71.7378 34.0134 69.9477 34.0134 68.1575C34.0134 66.3673 34.0134 64.5772 34.0134 62.787C34.0134 62.787 34.0134 62.7819 34.0134 62.7715C34.0134 62.7646 34.01 62.7612 34.0031 62.7612C33.9928 62.7612 33.9842 62.7612 33.9773 62.7612C33.9669 62.7612 33.9618 62.7646 33.9618 62.7715C33.9618 62.7819 33.9618 62.787 33.9618 62.787L31.4315 73.528H24.8474C24.4171 71.7378 23.9954 69.9563 23.5823 68.1833C23.1692 66.4104 22.7474 64.6374 22.3171 62.8645C22.3171 62.8645 22.3171 62.8593 22.3171 62.849C22.3171 62.8421 22.3137 62.8387 22.3068 62.8387C22.2965 62.8387 22.2913 62.8387 22.2913 62.8387C22.2913 62.8387 22.2879 62.8387 22.281 62.8387C22.2706 62.8387 22.2655 62.8421 22.2655 62.849C22.2655 62.8593 22.2655 62.8645 22.2655 62.8645C22.2655 64.6374 22.2655 66.4104 22.2655 68.1833C22.2655 69.9563 22.2655 71.7378 22.2655 73.528H12.8413C12.8413 72.237 12.8413 70.9409 12.8413 69.6396C12.8413 68.3417 12.8413 67.0421 12.8413 65.7408C12.8413 64.4429 12.8413 63.1433 12.8413 61.842C12.8413 60.5442 12.8413 59.2497 12.8413 57.9587C12.8413 57.3219 12.8413 56.6884 12.8413 56.0584C12.8413 55.4319 12.8413 54.8001 12.8413 54.1633H26.6032C26.8614 55.2305 27.111 56.2925 27.352 57.3494C27.5929 58.4097 27.8391 59.4735 28.0904 60.5407C28.3383 61.6079 28.5827 62.6751 28.8237 63.7423C28.8237 63.7596 28.8288 63.7716 28.8392 63.7785C28.846 63.7888 28.8529 63.7888 28.8598 63.7785C28.8701 63.7716 28.8753 63.7596 28.8753 63.7423L30.9409 54.1633ZM49.9441 54.1633H65.9781C66.288 55.2305 66.5926 56.3011 66.8922 57.3752C67.1951 58.4528 67.4963 59.5286 67.7958 60.6027C68.0988 61.6802 68.4052 62.756 68.715 63.8301C69.0249 64.9077 69.3295 65.9835 69.629 67.0576C69.932 68.1351 70.2332 69.211 70.5327 70.285C70.8357 71.3626 71.1421 72.4436 71.4519 73.528H59.9363L59.4974 70.9977C59.4286 70.9977 59.3683 70.9977 59.3167 70.9977C59.265 70.9977 59.2048 70.9977 59.1359 70.9977H56.2958C56.2441 70.9977 56.1925 70.9977 56.1409 70.9977C56.0892 70.9977 56.0376 70.9977 55.9859 70.9977L55.547 73.528H44.522C44.8319 72.4436 45.1365 71.3626 45.436 70.285C45.739 69.211 46.0402 68.1351 46.3397 67.0576C46.6427 65.9835 46.9439 64.9077 47.2434 63.8301C47.5464 62.756 47.8476 61.6802 48.1471 60.6027C48.45 59.5286 48.7513 58.4528 49.0508 57.3752C49.3537 56.3011 49.6515 55.2305 49.9441 54.1633ZM56.2958 69.1645C56.2958 69.1817 56.2958 69.1903 56.2958 69.1903C56.2958 69.1903 56.3044 69.1903 56.3216 69.1903H59.1618C59.179 69.1903 59.1876 69.1851 59.1876 69.1748C59.1876 69.1679 59.1876 69.1645 59.1876 69.1645C59.1876 69.1645 59.1532 68.9528 59.0843 68.5293C59.0154 68.1093 58.9242 67.5757 58.8106 66.9285C58.7004 66.2847 58.5851 65.5962 58.4646 64.8629C58.3441 64.1331 58.2322 63.4411 58.129 62.787C58.0257 62.1329 57.9345 61.5993 57.8553 61.1862C57.7795 60.7731 57.7417 60.5665 57.7417 60.5665C57.7417 60.5665 57.7365 60.5665 57.7262 60.5665C57.7193 60.5665 57.7159 60.5665 57.7159 60.5665C57.7159 60.5665 57.6814 60.7731 57.6126 61.1862C57.5437 61.5993 57.4525 62.1329 57.3389 62.787C57.2287 63.4411 57.1134 64.1331 56.9929 64.8629C56.8724 65.5962 56.7605 66.2847 56.6572 66.9285C56.554 67.5757 56.4679 68.1093 56.3991 68.5293C56.3302 68.9528 56.2958 69.1645 56.2958 69.1645ZM84.6664 74.3026C83.31 74.3026 82.0552 74.2165 80.9019 74.0444C79.7452 73.8723 78.6814 73.6227 77.7106 73.2956C76.7398 72.9686 75.8705 72.5727 75.1028 72.1079C74.3351 71.6432 73.6586 71.1182 73.0734 70.5329C72.4881 69.9477 72.0027 69.3056 71.6172 68.6068C71.2281 67.9114 70.939 67.1678 70.7496 66.376C70.5603 65.5842 70.4656 64.7493 70.4656 63.8714C70.4656 62.4428 70.698 61.1604 71.1627 60.0243C71.6309 58.8883 72.2902 57.9071 73.1405 57.0809C73.9943 56.2547 75.0099 55.5661 76.1872 55.0153C77.3646 54.4645 78.6694 54.0548 80.1015 53.7863C81.5302 53.5212 83.0518 53.3887 84.6664 53.3887C87.5272 53.3887 89.9543 53.7329 91.9475 54.4215C93.9477 55.11 95.5279 56.0997 96.688 57.3907C97.8516 58.6817 98.578 60.2481 98.8672 62.0899L87.8939 63.8714C87.8939 63.4755 87.8078 63.1347 87.6357 62.849C87.4635 62.5667 87.2329 62.3395 86.9437 62.1674C86.6511 61.9952 86.3103 61.8661 85.9212 61.7801C85.5357 61.694 85.1174 61.651 84.6664 61.651C84.0502 61.651 83.5011 61.7319 83.0191 61.8937C82.5371 62.0589 82.1533 62.2999 81.8676 62.6166C81.5818 62.9368 81.4389 63.3378 81.4389 63.8198C81.4389 64.1124 81.4923 64.3792 81.599 64.6202C81.6989 64.8612 81.8452 65.0712 82.038 65.2502C82.2273 65.4327 82.4545 65.579 82.7196 65.6892C82.9847 65.8028 83.2825 65.8888 83.613 65.9473C83.94 66.0093 84.2912 66.0403 84.6664 66.0403C85.5821 66.0403 86.3498 65.8544 86.9695 65.4826C87.5857 65.1142 87.8939 64.5772 87.8939 63.8714L98.8672 64.9817C98.6813 66.2555 98.2647 67.4518 97.6175 68.5706C96.9738 69.6895 96.0787 70.6792 94.9323 71.5399C93.7893 72.4005 92.3693 73.077 90.6721 73.5693C88.9783 74.0582 86.9764 74.3026 84.6664 74.3026ZM99.6934 54.1633H118.361C119.876 54.1633 121.132 54.4335 122.131 54.974C123.129 55.5179 123.878 56.2151 124.377 57.0654C124.876 57.9192 125.126 58.8194 125.126 59.7661C125.126 60.7473 124.856 61.6974 124.315 62.6166C123.771 63.5392 122.953 64.2932 121.862 64.8784C120.767 65.4637 119.402 65.7563 117.767 65.7563C117.698 65.7563 117.526 65.7563 117.251 65.7563C116.975 65.7563 116.697 65.7563 116.414 65.7563C116.129 65.7563 115.943 65.7563 115.857 65.7563C115.857 65.7563 115.857 65.7649 115.857 65.7821C115.857 65.7993 115.857 65.8079 115.857 65.8079C115.857 65.8079 115.857 65.8114 115.857 65.8182C115.857 65.8286 115.857 65.8372 115.857 65.8441C115.857 65.8544 115.857 65.8596 115.857 65.8596H121.718L125.694 73.528H113.429C113.102 72.6501 112.772 71.7723 112.438 70.8944C112.101 70.0165 111.765 69.1387 111.431 68.2608C111.094 67.3829 110.753 66.5051 110.409 65.6272H113.404C113.748 65.6272 114.054 65.5755 114.323 65.4723C114.588 65.369 114.807 65.2313 114.979 65.0592C115.151 64.887 115.28 64.6925 115.366 64.4756C115.452 64.2622 115.495 64.0436 115.495 63.8198C115.495 63.51 115.418 63.2174 115.263 62.9419C115.108 62.6665 114.875 62.4428 114.566 62.2706C114.256 62.0985 113.868 62.0124 113.404 62.0124H110.46C110.46 62.0124 110.457 62.0159 110.45 62.0228C110.44 62.0331 110.431 62.0383 110.424 62.0383C110.414 62.0383 110.409 62.0469 110.409 62.0641C110.409 63.1829 110.409 64.004 110.409 64.5273C110.409 65.054 110.409 65.381 110.409 65.5084C110.409 65.6392 110.409 65.6874 110.409 65.653C110.409 65.653 110.409 65.7425 110.409 65.9215C110.409 66.104 110.409 66.3501 110.409 66.66C110.409 66.9698 110.409 67.3227 110.409 67.7186C110.409 68.2866 110.409 68.9149 110.409 69.6034C110.409 70.2919 110.409 70.9753 110.409 71.6535C110.409 72.3351 110.409 72.96 110.409 73.528H99.6934C99.6934 72.4264 99.6934 71.3196 99.6934 70.2076C99.6934 69.0991 99.6934 67.994 99.6934 66.8923C99.6934 65.7907 99.6934 64.6839 99.6934 63.5719C99.6934 62.4634 99.6934 61.3583 99.6934 60.2567C99.6934 59.2411 99.6934 58.2256 99.6934 57.21C99.6934 56.1944 99.6934 55.1788 99.6934 54.1633ZM139.714 53.3887C138.13 53.3887 136.679 53.504 135.361 53.7347C134.046 53.9688 132.863 54.3044 131.813 54.7416C130.763 55.1823 129.846 55.7073 129.061 56.3166C128.279 56.9294 127.625 57.6231 127.098 58.3977C126.575 59.1723 126.181 60.0157 125.916 60.928C125.647 61.8403 125.513 62.8042 125.513 63.8198C125.513 64.5944 125.594 65.3604 125.756 66.1178C125.921 66.8751 126.179 67.5981 126.53 68.2866C126.885 68.9751 127.333 69.6241 127.873 70.2334C128.417 70.8462 129.062 71.4022 129.809 71.9014C130.56 72.4005 131.426 72.8257 132.407 73.1768C133.388 73.5314 134.485 73.8086 135.696 74.0082C136.912 74.2045 138.251 74.3026 139.714 74.3026C141.762 74.3026 143.566 74.1184 145.126 73.75C146.682 73.3782 148.019 72.8601 149.138 72.1957C150.257 71.5347 151.169 70.7601 151.875 69.8719C152.581 68.9872 153.097 68.0319 153.424 67.006C153.751 65.9835 153.915 64.9214 153.915 63.8198C153.915 61.7887 153.39 59.9899 152.34 58.4235C151.29 56.8571 149.715 55.6264 147.615 54.7313C145.515 53.8362 142.881 53.3887 139.714 53.3887ZM139.74 61.5993C140.342 61.5993 140.85 61.6682 141.263 61.8059C141.676 61.9436 142.003 62.1192 142.244 62.3326C142.485 62.5495 142.662 62.787 142.776 63.0452C142.886 63.3034 142.941 63.5616 142.941 63.8198C142.941 64.0436 142.907 64.2622 142.838 64.4756C142.769 64.6925 142.652 64.9008 142.487 65.1005C142.325 65.2967 142.12 65.4671 141.872 65.6117C141.621 65.7597 141.32 65.8768 140.969 65.9628C140.614 66.0489 140.204 66.0919 139.74 66.0919C138.948 66.0919 138.311 65.9801 137.829 65.7563C137.347 65.5325 137.003 65.2485 136.796 64.9042C136.59 64.56 136.486 64.2071 136.486 63.8456C136.486 63.5702 136.542 63.2983 136.652 63.0297C136.765 62.7646 136.946 62.5237 137.194 62.3068C137.445 62.0933 137.781 61.9212 138.201 61.7904C138.624 61.663 139.137 61.5993 139.74 61.5993ZM176.404 54.1633V61.7542H165.43C165.43 61.7542 165.43 61.7577 165.43 61.7646C165.43 61.7749 165.43 61.7801 165.43 61.7801V63.2776C165.43 63.2948 165.43 63.3034 165.43 63.3034H176.016V69.4485H165.43C165.43 69.4485 165.43 69.4571 165.43 69.4743C165.43 70.0596 165.43 70.545 165.43 70.9305C165.43 71.3196 165.43 71.7034 165.43 72.0821C165.43 72.4608 165.43 72.9428 165.43 73.528H154.689C154.689 72.3059 154.689 71.0837 154.689 69.8616C154.689 68.6395 154.689 67.4208 154.689 66.2055C154.689 64.9937 154.689 63.7768 154.689 62.5546C154.689 61.3325 154.689 60.1104 154.689 58.8883C154.689 58.0965 154.689 57.3081 154.689 56.5232C154.689 55.7417 154.689 54.9551 154.689 54.1633H176.404ZM188.048 73.528H177.333C177.333 72.2887 177.333 71.0493 177.333 69.81C177.333 68.5706 177.333 67.3313 177.333 66.0919C177.333 64.8526 177.333 63.6133 177.333 62.3739C177.333 61.1346 177.333 59.8952 177.333 58.6559C177.333 57.8985 177.333 57.1446 177.333 56.3941C177.333 55.647 177.333 54.9034 177.333 54.1633H188.048C188.048 55.8329 188.048 57.4974 188.048 59.1568C188.048 60.8196 188.048 62.4858 188.048 64.1555C188.048 65.1883 188.048 66.2245 188.048 67.2641C188.048 68.3073 188.048 69.3487 188.048 70.3883C188.048 71.4314 188.048 72.478 188.048 73.528ZM188.895 54.1633H212.159V62.0124H205.936C205.936 62.0124 205.933 62.0159 205.926 62.0228C205.915 62.0331 205.907 62.0383 205.9 62.0383C205.89 62.0383 205.884 62.0469 205.884 62.0641C205.884 62.8214 205.884 63.5823 205.884 64.3465C205.884 65.1142 205.884 65.8802 205.884 66.6445C205.884 67.4122 205.884 68.1782 205.884 68.9424C205.884 69.7101 205.884 70.4778 205.884 71.2455C205.884 72.0098 205.884 72.7706 205.884 73.528H195.169C195.169 72.2542 195.169 70.9805 195.169 69.7067C195.169 68.4329 195.169 67.1592 195.169 65.8854C195.169 64.6116 195.169 63.3378 195.169 62.0641C195.169 62.0641 195.169 62.0589 195.169 62.0486C195.169 62.0417 195.166 62.0331 195.159 62.0228C195.149 62.0159 195.14 62.0124 195.133 62.0124C195.123 62.0124 195.118 62.0124 195.118 62.0124H188.895V54.1633Z" fill="#00916E"/>
</g>
</g>
</g>
</g>
<g clip-path="url(#clip7_393_3674)">
<g clip-path="url(#clip8_393_3674)">
<path d="M112.499 0.150391C102.363 0.150391 94.146 8.36708 94.146 18.5038C94.146 28.6406 102.363 36.8572 112.499 36.8572C122.636 36.8572 130.853 28.6406 130.853 18.5038C130.853 8.36708 122.636 0.150391 112.499 0.150391ZM110.026 28.4853C108.373 30.1399 105.572 30.0199 102.539 26.9887C99.508 23.9562 100.045 18.5038 100.045 18.5038C100.045 18.5038 105.497 17.9673 108.529 20.9999C111.561 24.031 111.681 26.832 110.026 28.4853ZM108.264 13.5625C108.264 9.27487 112.499 5.7976 112.499 5.7976C112.499 5.7976 116.735 9.27487 116.735 13.5625C116.735 17.8501 114.837 19.9156 112.499 19.9156C110.161 19.9156 108.264 17.8501 108.264 13.5625ZM122.46 26.9887C119.427 30.0199 116.626 30.1399 114.973 28.4853C113.318 26.832 113.438 24.031 116.469 20.9985C119.502 17.9673 124.954 18.5038 124.954 18.5038C124.954 18.5038 125.491 23.9562 122.46 26.9887Z" fill="#F5B700"/>
</g>
</g>
</g>
</g>
</g>
<defs>
<clipPath id="clip0_393_3674">
<rect width="225" height="86.85" fill="white"/>
</clipPath>
<clipPath id="clip1_393_3674">
<rect width="224.124" height="86.5494" fill="white" transform="translate(0.437988 0.150391)"/>
</clipPath>
<clipPath id="clip2_393_3674">
<rect width="224.124" height="86.5494" fill="white" transform="translate(0.437988 0.150391)"/>
</clipPath>
<clipPath id="clip3_393_3674">
<rect width="224.124" height="45.7099" fill="white" transform="translate(0.437988 40.9902)"/>
</clipPath>
<clipPath id="clip4_393_3674">
<rect width="199.328" height="20.9139" fill="white" transform="translate(12.8359 53.3887)"/>
</clipPath>
<clipPath id="clip5_393_3674">
<rect width="199.328" height="20.9139" fill="white" transform="translate(12.8359 53.3887)"/>
</clipPath>
<clipPath id="clip6_393_3674">
<rect width="199.328" height="20.9139" fill="white" transform="translate(12.8359 53.3887)"/>
</clipPath>
<clipPath id="clip7_393_3674">
<rect width="36.7068" height="36.7068" fill="white" transform="translate(94.146 0.150391)"/>
</clipPath>
<clipPath id="clip8_393_3674">
<rect width="36.7068" height="36.7068" fill="white" transform="translate(94.146 0.150391)"/>
</clipPath>
</defs>
</svg>
