<svg width="25" height="25" viewBox="0 0 25 25" fill="none" xmlns="http://www.w3.org/2000/svg">
<path d="M12 15.8496H7.5C6.43913 15.8496 5.42172 16.271 4.67157 17.0212C3.92143 17.7713 3.5 18.7887 3.5 19.8496V21.8496M21.878 17.4756C22.2764 17.0773 22.5001 16.537 22.5001 15.9736C22.5001 15.4102 22.2764 14.87 21.878 14.4716C21.4796 14.0733 20.9394 13.8495 20.376 13.8495C19.8126 13.8495 19.2724 14.0733 18.874 14.4716L14.864 18.4836C14.6262 18.7212 14.4522 19.0149 14.358 19.3376L13.521 22.2076C13.4959 22.2937 13.4944 22.3849 13.5166 22.4717C13.5389 22.5585 13.5841 22.6378 13.6474 22.7012C13.7108 22.7645 13.7901 22.8097 13.8769 22.832C13.9637 22.8542 14.055 22.8527 14.141 22.8276L17.011 21.9906C17.3337 21.8964 17.6274 21.7224 17.865 21.4846L21.878 17.4756ZM14.5 7.84961C14.5 10.0587 12.7091 11.8496 10.5 11.8496C8.29086 11.8496 6.5 10.0587 6.5 7.84961C6.5 5.64047 8.29086 3.84961 10.5 3.84961C12.7091 3.84961 14.5 5.64047 14.5 7.84961Z" stroke="#F5B700" stroke-width="2" stroke-linecap="round" stroke-linejoin="round"/>
</svg>
