<svg width="24" height="25" viewBox="0 0 24 25" fill="none" xmlns="http://www.w3.org/2000/svg">
<path d="M9.00019 12.5L11.0002 14.5L15.0002 10.5M3.85019 9.11998C3.70423 8.4625 3.72665 7.77882 3.91535 7.13231C4.10405 6.48581 4.45294 5.89742 4.92966 5.4217C5.40638 4.94597 5.9955 4.59832 6.6424 4.41097C7.2893 4.22362 7.97303 4.20264 8.63019 4.34998C8.9919 3.78428 9.4902 3.31873 10.0791 2.99626C10.6681 2.67379 11.3287 2.50476 12.0002 2.50476C12.6716 2.50476 13.3323 2.67379 13.9212 2.99626C14.5102 3.31873 15.0085 3.78428 15.3702 4.34998C16.0284 4.202 16.7133 4.22288 17.3612 4.41069C18.0091 4.59849 18.599 4.94712 19.076 5.42413C19.5531 5.90114 19.9017 6.49105 20.0895 7.13898C20.2773 7.78691 20.2982 8.47181 20.1502 9.12998C20.7159 9.49168 21.1814 9.98998 21.5039 10.5789C21.8264 11.1679 21.9954 11.8285 21.9954 12.5C21.9954 13.1714 21.8264 13.8321 21.5039 14.421C21.1814 15.01 20.7159 15.5083 20.1502 15.87C20.2975 16.5271 20.2765 17.2109 20.0892 17.8578C19.9018 18.5047 19.5542 19.0938 19.0785 19.5705C18.6027 20.0472 18.0144 20.3961 17.3679 20.5848C16.7213 20.7735 16.0377 20.7959 15.3802 20.65C15.019 21.2178 14.5203 21.6854 13.9303 22.0093C13.3404 22.3332 12.6782 22.503 12.0052 22.503C11.3322 22.503 10.67 22.3332 10.0801 22.0093C9.49011 21.6854 8.99143 21.2178 8.63019 20.65C7.97303 20.7973 7.2893 20.7763 6.6424 20.589C5.9955 20.4016 5.40638 20.054 4.92966 19.5783C4.45294 19.1025 4.10405 18.5141 3.91535 17.8676C3.72665 17.2211 3.70423 16.5374 3.85019 15.88C3.28015 15.5192 2.81061 15.0201 2.48524 14.4292C2.15988 13.8382 1.98926 13.1746 1.98926 12.5C1.98926 11.8254 2.15988 11.1617 2.48524 10.5708C2.81061 9.9798 3.28015 9.48073 3.85019 9.11998Z" stroke="#242424" stroke-width="2" stroke-linecap="round" stroke-linejoin="round"/>
</svg>
