<svg width="225" height="87" viewBox="0 0 225 87" fill="none" xmlns="http://www.w3.org/2000/svg">
<g clip-path="url(#clip0_352_4516)">
<g clip-path="url(#clip1_352_4516)">
<g clip-path="url(#clip2_352_4516)">
<path d="M0.438477 86.6999V40.9897H224.562V86.6999H0.438477Z" fill="black"/>
<path d="M2.50488 84.6331V43.0559H222.496V84.6331H2.50488Z" fill="#F5B700"/>
<path d="M6.6377 80.5007V47.1887H218.364V80.5007H6.6377Z" fill="black"/>
<g clip-path="url(#clip3_352_4516)">
<g clip-path="url(#clip4_352_4516)">
<g clip-path="url(#clip5_352_4516)">
<path d="M30.9414 54.1623H43.9545C43.9545 55.4533 43.9545 56.7442 43.9545 58.0352C43.9545 59.3262 43.9545 60.6172 43.9545 61.9082C43.9545 63.1992 43.9545 64.4901 43.9545 65.7811C43.9545 67.0721 43.9545 68.3631 43.9545 69.6541C43.9545 70.9451 43.9545 72.236 43.9545 73.527H34.0139C34.0139 71.7369 34.0139 69.9467 34.0139 68.1565C34.0139 66.3664 34.0139 64.5762 34.0139 62.786C34.0139 62.786 34.0139 62.7809 34.0139 62.7706C34.0139 62.7637 34.0105 62.7602 34.0036 62.7602C33.9933 62.7602 33.9846 62.7602 33.9778 62.7602C33.9674 62.7602 33.9623 62.7637 33.9623 62.7706C33.9623 62.7809 33.9623 62.786 33.9623 62.786L31.4319 73.527H24.8479C24.4176 71.7369 23.9959 69.9553 23.5828 68.1824C23.1697 66.4094 22.7479 64.6365 22.3176 62.8635C22.3176 62.8635 22.3176 62.8583 22.3176 62.848C22.3176 62.8411 22.3142 62.8377 22.3073 62.8377C22.297 62.8377 22.2918 62.8377 22.2918 62.8377C22.2918 62.8377 22.2883 62.8377 22.2815 62.8377C22.2711 62.8377 22.266 62.8411 22.266 62.848C22.266 62.8583 22.266 62.8635 22.266 62.8635C22.266 64.6365 22.266 66.4094 22.266 68.1824C22.266 69.9553 22.266 71.7369 22.266 73.527H12.8418C12.8418 72.236 12.8418 70.9399 12.8418 69.6386C12.8418 68.3407 12.8418 67.0411 12.8418 65.7398C12.8418 64.4419 12.8418 63.1424 12.8418 61.841C12.8418 60.5432 12.8418 59.2488 12.8418 57.9578C12.8418 57.3209 12.8418 56.6874 12.8418 56.0574C12.8418 55.4309 12.8418 54.7992 12.8418 54.1623H26.6037C26.8619 55.2295 27.1115 56.2915 27.3524 57.3484C27.5934 58.4088 27.8396 59.4725 28.0909 60.5397C28.3387 61.607 28.5832 62.6742 28.8242 63.7414C28.8242 63.7586 28.8293 63.7706 28.8397 63.7775C28.8465 63.7879 28.8534 63.7879 28.8603 63.7775C28.8706 63.7706 28.8758 63.7586 28.8758 63.7414L30.9414 54.1623ZM49.9446 54.1623H65.9786C66.2885 55.2295 66.5931 56.3002 66.8926 57.3742C67.1956 58.4518 67.4968 59.5276 67.7963 60.6017C68.0993 61.6792 68.4057 62.7551 68.7155 63.8292C69.0253 64.9067 69.33 65.9825 69.6295 67.0566C69.9325 68.1342 70.2337 69.21 70.5332 70.2841C70.8362 71.3616 71.1426 72.4426 71.4524 73.527H59.9368L59.4979 70.9967C59.429 70.9967 59.3688 70.9967 59.3172 70.9967C59.2655 70.9967 59.2053 70.9967 59.1364 70.9967H56.2963C56.2446 70.9967 56.193 70.9967 56.1413 70.9967C56.0897 70.9967 56.0381 70.9967 55.9864 70.9967L55.5475 73.527H44.5225C44.8323 72.4426 45.137 71.3616 45.4365 70.2841C45.7395 69.21 46.0407 68.1342 46.3402 67.0566C46.6432 65.9825 46.9444 64.9067 47.2439 63.8292C47.5468 62.7551 47.8481 61.6792 48.1476 60.6017C48.4505 59.5276 48.7518 58.4518 49.0513 57.3742C49.3542 56.3002 49.652 55.2295 49.9446 54.1623ZM56.2963 69.1635C56.2963 69.1807 56.2963 69.1893 56.2963 69.1893C56.2963 69.1893 56.3049 69.1893 56.3221 69.1893H59.1622C59.1795 69.1893 59.1881 69.1842 59.1881 69.1738C59.1881 69.1669 59.1881 69.1635 59.1881 69.1635C59.1881 69.1635 59.1536 68.9518 59.0848 68.5283C59.0159 68.1083 58.9247 67.5747 58.8111 66.9275C58.7009 66.2838 58.5856 65.5952 58.4651 64.8619C58.3446 64.1321 58.2327 63.4401 58.1295 62.786C58.0262 62.132 57.9349 61.5983 57.8558 61.1852C57.78 60.7721 57.7422 60.5656 57.7422 60.5656C57.7422 60.5656 57.737 60.5656 57.7267 60.5656C57.7198 60.5656 57.7163 60.5656 57.7163 60.5656C57.7163 60.5656 57.6819 60.7721 57.6131 61.1852C57.5442 61.5983 57.453 62.132 57.3394 62.786C57.2292 63.4401 57.1139 64.1321 56.9934 64.8619C56.8729 65.5952 56.761 66.2838 56.6577 66.9275C56.5545 67.5747 56.4684 68.1083 56.3995 68.5283C56.3307 68.9518 56.2963 69.1635 56.2963 69.1635ZM84.6669 74.3016C83.3105 74.3016 82.0557 74.2155 80.9024 74.0434C79.7457 73.8713 78.6819 73.6217 77.7111 73.2946C76.7403 72.9676 75.871 72.5717 75.1033 72.1069C74.3356 71.6422 73.6591 71.1172 73.0739 70.5319C72.4886 69.9467 72.0032 69.3046 71.6176 68.6058C71.2286 67.9104 70.9394 67.1668 70.7501 66.375C70.5608 65.5832 70.4661 64.7483 70.4661 63.8705C70.4661 62.4418 70.6985 61.1594 71.1632 60.0233C71.6314 58.8873 72.2907 57.9061 73.141 57.0799C73.9948 56.2537 75.0103 55.5652 76.1877 55.0143C77.3651 54.4635 78.6698 54.0538 80.102 53.7853C81.5307 53.5202 83.0523 53.3877 84.6669 53.3877C87.5277 53.3877 89.9548 53.732 91.948 54.4205C93.9482 55.109 95.5284 56.0988 96.6885 57.3897C97.8521 58.6807 98.5785 60.2471 98.8677 62.0889L87.8943 63.8705C87.8943 63.4746 87.8083 63.1338 87.6361 62.848C87.464 62.5657 87.2334 62.3385 86.9442 62.1664C86.6516 61.9942 86.3107 61.8651 85.9217 61.7791C85.5362 61.693 85.1179 61.65 84.6669 61.65C84.0507 61.65 83.5016 61.7309 83.0196 61.8927C82.5376 62.0579 82.1538 62.2989 81.868 62.6156C81.5823 62.9358 81.4394 63.3369 81.4394 63.8188C81.4394 64.1115 81.4928 64.3783 81.5995 64.6192C81.6993 64.8602 81.8457 65.0702 82.0385 65.2492C82.2278 65.4317 82.455 65.578 82.7201 65.6882C82.9852 65.8018 83.283 65.8878 83.6134 65.9464C83.9405 66.0083 84.2916 66.0393 84.6669 66.0393C85.5826 66.0393 86.3503 65.8534 86.97 65.4816C87.5862 65.1133 87.8943 64.5762 87.8943 63.8705L98.8677 64.9807C98.6818 66.2545 98.2652 67.4508 97.618 68.5696C96.9743 69.6885 96.0792 70.6783 94.9328 71.5389C93.7898 72.3996 92.3698 73.076 90.6725 73.5683C88.9788 74.0572 86.9769 74.3016 84.6669 74.3016ZM99.6939 54.1623H118.362C119.876 54.1623 121.133 54.4325 122.131 54.973C123.13 55.517 123.878 56.2141 124.378 57.0644C124.877 57.9182 125.126 58.8184 125.126 59.7651C125.126 60.7463 124.856 61.6965 124.316 62.6156C123.772 63.5383 122.954 64.2922 121.863 64.8774C120.768 65.4627 119.403 65.7553 117.768 65.7553C117.699 65.7553 117.527 65.7553 117.251 65.7553C116.976 65.7553 116.697 65.7553 116.415 65.7553C116.129 65.7553 115.943 65.7553 115.857 65.7553C115.857 65.7553 115.857 65.7639 115.857 65.7811C115.857 65.7983 115.857 65.8069 115.857 65.8069C115.857 65.8069 115.857 65.8104 115.857 65.8173C115.857 65.8276 115.857 65.8362 115.857 65.8431C115.857 65.8534 115.857 65.8586 115.857 65.8586H121.718L125.694 73.527H113.43C113.103 72.6492 112.772 71.7713 112.438 70.8934C112.101 70.0156 111.765 69.1377 111.432 68.2598C111.094 67.3819 110.753 66.5041 110.409 65.6262H113.404C113.748 65.6262 114.055 65.5746 114.323 65.4713C114.588 65.368 114.807 65.2303 114.979 65.0582C115.151 64.886 115.28 64.6915 115.366 64.4747C115.453 64.2612 115.496 64.0426 115.496 63.8188C115.496 63.509 115.418 63.2164 115.263 62.941C115.108 62.6656 114.876 62.4418 114.566 62.2697C114.256 62.0975 113.869 62.0115 113.404 62.0115H110.461C110.461 62.0115 110.457 62.0149 110.45 62.0218C110.44 62.0321 110.431 62.0373 110.425 62.0373C110.414 62.0373 110.409 62.0459 110.409 62.0631C110.409 63.1819 110.409 64.003 110.409 64.5263C110.409 65.053 110.409 65.3801 110.409 65.5074C110.409 65.6383 110.409 65.6865 110.409 65.652C110.409 65.652 110.409 65.7415 110.409 65.9206C110.409 66.103 110.409 66.3492 110.409 66.659C110.409 66.9688 110.409 67.3217 110.409 67.7176C110.409 68.2856 110.409 68.9139 110.409 69.6024C110.409 70.291 110.409 70.9743 110.409 71.6525C110.409 72.3342 110.409 72.959 110.409 73.527H99.6939C99.6939 72.4254 99.6939 71.3186 99.6939 70.2066C99.6939 69.0981 99.6939 67.993 99.6939 66.8914C99.6939 65.7897 99.6939 64.6829 99.6939 63.571C99.6939 62.4624 99.6939 61.3574 99.6939 60.2557C99.6939 59.2401 99.6939 58.2246 99.6939 57.209C99.6939 56.1934 99.6939 55.1779 99.6939 54.1623ZM139.714 53.3877C138.131 53.3877 136.68 53.503 135.361 53.7337C134.046 53.9678 132.864 54.3034 131.814 54.7406C130.764 55.1813 129.846 55.7063 129.061 56.3156C128.28 56.9284 127.626 57.6221 127.099 58.3967C126.576 59.1713 126.181 60.0147 125.916 60.927C125.648 61.8393 125.514 62.8033 125.514 63.8188C125.514 64.5934 125.594 65.3594 125.756 66.1168C125.922 66.8742 126.18 67.5971 126.531 68.2856C126.885 68.9742 127.333 69.6231 127.873 70.2324C128.417 70.8452 129.063 71.4012 129.81 71.9004C130.56 72.3996 131.426 72.8247 132.407 73.1759C133.389 73.5305 134.485 73.8076 135.697 74.0073C136.912 74.2035 138.251 74.3016 139.714 74.3016C141.763 74.3016 143.567 74.1174 145.126 73.7491C146.682 73.3773 148.02 72.8592 149.139 72.1947C150.257 71.5337 151.17 70.7592 151.875 69.871C152.581 68.9862 153.098 68.0309 153.425 67.005C153.752 65.9825 153.915 64.9205 153.915 63.8188C153.915 61.7877 153.39 59.9889 152.34 58.4225C151.29 56.8561 149.715 55.6254 147.615 54.7303C145.515 53.8352 142.882 53.3877 139.714 53.3877ZM139.74 61.5983C140.343 61.5983 140.85 61.6672 141.264 61.8049C141.677 61.9426 142.004 62.1182 142.245 62.3316C142.486 62.5485 142.663 62.786 142.777 63.0442C142.887 63.3024 142.942 63.5606 142.942 63.8188C142.942 64.0426 142.907 64.2612 142.839 64.4747C142.77 64.6915 142.653 64.8998 142.487 65.0995C142.326 65.2957 142.121 65.4661 141.873 65.6107C141.622 65.7588 141.32 65.8758 140.969 65.9619C140.615 66.0479 140.205 66.091 139.74 66.091C138.948 66.091 138.312 65.9791 137.83 65.7553C137.348 65.5315 137.003 65.2475 136.797 64.9033C136.59 64.559 136.487 64.2061 136.487 63.8447C136.487 63.5692 136.542 63.2973 136.652 63.0288C136.766 62.7637 136.947 62.5227 137.194 62.3058C137.446 62.0924 137.781 61.9202 138.201 61.7894C138.625 61.662 139.138 61.5983 139.74 61.5983ZM176.404 54.1623V61.7533H165.431C165.431 61.7533 165.431 61.7567 165.431 61.7636C165.431 61.7739 165.431 61.7791 165.431 61.7791V63.2766C165.431 63.2938 165.431 63.3024 165.431 63.3024H176.017V69.4475H165.431C165.431 69.4475 165.431 69.4561 165.431 69.4733C165.431 70.0586 165.431 70.544 165.431 70.9296C165.431 71.3186 165.431 71.7024 165.431 72.0811C165.431 72.4598 165.431 72.9418 165.431 73.527H154.69C154.69 72.3049 154.69 71.0828 154.69 69.8606C154.69 68.6385 154.69 67.4198 154.69 66.2046C154.69 64.9928 154.69 63.7758 154.69 62.5537C154.69 61.3315 154.69 60.1094 154.69 58.8873C154.69 58.0955 154.69 57.3071 154.69 56.5222C154.69 55.7407 154.69 54.9541 154.69 54.1623H176.404ZM188.049 73.527H177.334C177.334 72.2877 177.334 71.0483 177.334 69.809C177.334 68.5696 177.334 67.3303 177.334 66.091C177.334 64.8516 177.334 63.6123 177.334 62.3729C177.334 61.1336 177.334 59.8942 177.334 58.6549C177.334 57.8975 177.334 57.1436 177.334 56.3931C177.334 55.6461 177.334 54.9024 177.334 54.1623H188.049C188.049 55.832 188.049 57.4965 188.049 59.1558C188.049 60.8186 188.049 62.4848 188.049 64.1545C188.049 65.1873 188.049 66.2235 188.049 67.2632C188.049 68.3063 188.049 69.3477 188.049 70.3874C188.049 71.4305 188.049 72.477 188.049 73.527ZM188.896 54.1623H212.159V62.0115H205.937C205.937 62.0115 205.933 62.0149 205.926 62.0218C205.916 62.0321 205.907 62.0373 205.9 62.0373C205.89 62.0373 205.885 62.0459 205.885 62.0631C205.885 62.8205 205.885 63.5813 205.885 64.3456C205.885 65.1133 205.885 65.8792 205.885 66.6435C205.885 67.4112 205.885 68.1772 205.885 68.9415C205.885 69.7092 205.885 70.4769 205.885 71.2446C205.885 72.0088 205.885 72.7696 205.885 73.527H195.17C195.17 72.2533 195.17 70.9795 195.17 69.7057C195.17 68.4319 195.17 67.1582 195.17 65.8844C195.17 64.6106 195.17 63.3369 195.17 62.0631C195.17 62.0631 195.17 62.0579 195.17 62.0476C195.17 62.0407 195.166 62.0321 195.159 62.0218C195.149 62.0149 195.141 62.0115 195.134 62.0115C195.123 62.0115 195.118 62.0115 195.118 62.0115H188.896V54.1623Z" fill="#F5B700"/>
</g>
</g>
</g>
</g>
<g clip-path="url(#clip6_352_4516)">
<g clip-path="url(#clip7_352_4516)">
<path d="M112.5 0.150146C102.363 0.150146 94.1465 8.36683 94.1465 18.5036C94.1465 28.6403 102.363 36.857 112.5 36.857C122.637 36.857 130.853 28.6403 130.853 18.5036C130.853 8.36683 122.637 0.150146 112.5 0.150146ZM110.026 28.485C108.373 30.1396 105.572 30.0196 102.54 26.9885C99.5085 23.9559 100.045 18.5036 100.045 18.5036C100.045 18.5036 105.497 17.9671 108.53 20.9996C111.561 24.0308 111.681 26.8318 110.026 28.485ZM108.265 13.5623C108.265 9.27462 112.5 5.79735 112.5 5.79735C112.5 5.79735 116.735 9.27462 116.735 13.5623C116.735 17.8499 114.838 19.9154 112.5 19.9154C110.162 19.9154 108.265 17.8499 108.265 13.5623ZM122.46 26.9885C119.428 30.0196 116.627 30.1396 114.973 28.485C113.319 26.8318 113.439 24.0308 116.47 20.9982C119.502 17.9671 124.955 18.5036 124.955 18.5036C124.955 18.5036 125.491 23.9559 122.46 26.9885Z" fill="black"/>
</g>
</g>
</g>
</g>
<defs>
<clipPath id="clip0_352_4516">
<rect width="224.124" height="86.5494" fill="white" transform="translate(0.438477 0.150146)"/>
</clipPath>
<clipPath id="clip1_352_4516">
<rect width="224.124" height="86.5494" fill="white" transform="translate(0.438477 0.150146)"/>
</clipPath>
<clipPath id="clip2_352_4516">
<rect width="224.124" height="45.7099" fill="white" transform="translate(0.438477 40.9897)"/>
</clipPath>
<clipPath id="clip3_352_4516">
<rect width="199.328" height="20.9139" fill="white" transform="translate(12.8369 53.3877)"/>
</clipPath>
<clipPath id="clip4_352_4516">
<rect width="199.328" height="20.9139" fill="white" transform="translate(12.8369 53.3877)"/>
</clipPath>
<clipPath id="clip5_352_4516">
<rect width="199.328" height="20.9139" fill="white" transform="translate(12.8369 53.3877)"/>
</clipPath>
<clipPath id="clip6_352_4516">
<rect width="36.7068" height="36.7068" fill="white" transform="translate(94.1465 0.150146)"/>
</clipPath>
<clipPath id="clip7_352_4516">
<rect width="36.7068" height="36.7068" fill="white" transform="translate(94.1465 0.150146)"/>
</clipPath>
</defs>
</svg>
